<svg width="16" height="16" viewBox="0 0 16 16" fill="none" xmlns="http://www.w3.org/2000/svg">
<path fill-rule="evenodd" clip-rule="evenodd" d="M0 8L2.34478 5.65522V2.34315H5.65685L8 0L10.3431 2.34315H13.6585V5.65849L16 8L13.6585 10.3415V13.6569H10.3431L8 16L5.65685 13.6569H2.34478V10.3448L0 8ZM4.90503 7.10137C5.18808 7.24749 5.50093 7.32055 5.84358 7.32055C6.18622 7.32055 6.49534 7.24749 6.77095 7.10137C7.054 6.94795 7.27747 6.74703 7.44134 6.49863C7.60521 6.24292 7.68715 5.96164 7.68715 5.65479C7.68715 5.34795 7.60521 5.07032 7.44134 4.82192C7.27747 4.57352 7.054 4.37626 6.77095 4.23014C6.49534 4.07671 6.18622 4 5.84358 4C5.50093 4 5.18808 4.07671 4.90503 4.23014C4.62942 4.37626 4.40968 4.57352 4.24581 4.82192C4.08194 5.07032 4 5.34795 4 5.65479C4 5.96164 4.08194 6.24292 4.24581 6.49863C4.40968 6.74703 4.62942 6.94795 4.90503 7.10137ZM7.77654 7.76986L4.63687 11.3753L5.30726 11.9671L8.30168 8.16438L11.3631 4.6137L10.6816 4.02192L7.77654 7.76986ZM6.40223 6.31233C6.24581 6.49498 6.05959 6.5863 5.84358 6.5863C5.62756 6.5863 5.44134 6.49498 5.28492 6.31233C5.12849 6.12968 5.05028 5.9105 5.05028 5.65479C5.05028 5.40639 5.12849 5.19087 5.28492 5.00822C5.44134 4.82557 5.62756 4.73425 5.84358 4.73425C6.05959 4.73425 6.24581 4.82557 6.40223 5.00822C6.55866 5.19087 6.63687 5.40639 6.63687 5.65479C6.63687 5.9032 6.55866 6.12237 6.40223 6.31233ZM9.22905 11.7808C9.50465 11.9269 9.81378 12 10.1564 12C10.4991 12 10.8082 11.9269 11.0838 11.7808C11.3669 11.6274 11.5903 11.4265 11.7542 11.1781C11.9181 10.9297 12 10.6521 12 10.3452C12 10.0384 11.9181 9.76073 11.7542 9.51233C11.5903 9.25662 11.3669 9.05571 11.0838 8.90959C10.8082 8.75616 10.4991 8.67945 10.1564 8.67945C9.81378 8.67945 9.50465 8.75616 9.22905 8.90959C8.95344 9.05571 8.72998 9.25662 8.55866 9.51233C8.39479 9.76073 8.31285 10.0384 8.31285 10.3452C8.31285 10.6521 8.39479 10.9297 8.55866 11.1781C8.72998 11.4265 8.95344 11.6274 9.22905 11.7808ZM10.7151 10.9918C10.5661 11.1744 10.3799 11.2658 10.1564 11.2658C9.94041 11.2658 9.75419 11.1744 9.59776 10.9918C9.44134 10.8091 9.36313 10.5936 9.36313 10.3452C9.36313 10.0968 9.44134 9.88128 9.59776 9.69863C9.75419 9.50868 9.94041 9.4137 10.1564 9.4137C10.3724 9.4137 10.5587 9.50502 10.7151 9.68767C10.8715 9.87032 10.9497 10.0895 10.9497 10.3452C10.9497 10.5936 10.8715 10.8091 10.7151 10.9918Z" fill="#FF2D34"/>
</svg>
